<mxfile host="app.diagrams.net" modified="2022-09-02T02:54:38.431Z" agent="5.0 (Windows NT 10.0; Win64; x64) AppleWebKit/537.36 (KHTML, like Gecko) Chrome/103.0.5060.134 Safari/537.36 OPR/89.0.4447.104" etag="XMtyFzOnib47IYnDNxGh" version="20.2.7" type="github">
  <diagram id="hvFaQ4It_nXY21TEeIT9" name="Página-1">
    <mxGraphModel dx="2053" dy="1225" grid="1" gridSize="10" guides="1" tooltips="1" connect="1" arrows="1" fold="1" page="1" pageScale="1" pageWidth="827" pageHeight="1169" math="0" shadow="0">
      <root>
        <mxCell id="0" />
        <mxCell id="1" parent="0" />
        <mxCell id="cX062KS2rVjkSc14tI30-100" value="nome" style="ellipse;whiteSpace=wrap;html=1;fontFamily=Lucida Console;fillColor=#f8cecc;strokeColor=#b85450;" vertex="1" parent="1">
          <mxGeometry x="1100" y="370" width="120" height="80" as="geometry" />
        </mxCell>
        <mxCell id="cX062KS2rVjkSc14tI30-14" value="" style="edgeStyle=orthogonalEdgeStyle;rounded=0;orthogonalLoop=1;jettySize=auto;html=1;fontFamily=Lucida Console;" edge="1" parent="1" source="cX062KS2rVjkSc14tI30-1" target="cX062KS2rVjkSc14tI30-13">
          <mxGeometry relative="1" as="geometry" />
        </mxCell>
        <mxCell id="cX062KS2rVjkSc14tI30-1" value="Departamento" style="rounded=0;whiteSpace=wrap;html=1;fillColor=#bac8d3;strokeColor=#23445d;fontFamily=Lucida Console;" vertex="1" parent="1">
          <mxGeometry x="360" y="240" width="120" height="60" as="geometry" />
        </mxCell>
        <mxCell id="cX062KS2rVjkSc14tI30-5" value="código" style="ellipse;whiteSpace=wrap;html=1;align=center;fontStyle=4;fontFamily=Lucida Console;fillColor=#f8cecc;strokeColor=#b85450;" vertex="1" parent="1">
          <mxGeometry x="310" y="150" width="96" height="40" as="geometry" />
        </mxCell>
        <mxCell id="cX062KS2rVjkSc14tI30-7" value="" style="endArrow=classic;html=1;rounded=0;fontFamily=Lucida Console;entryX=0;entryY=1;entryDx=0;entryDy=0;" edge="1" parent="1" target="cX062KS2rVjkSc14tI30-9">
          <mxGeometry width="50" height="50" relative="1" as="geometry">
            <mxPoint x="450" y="240" as="sourcePoint" />
            <mxPoint x="470" y="180" as="targetPoint" />
            <Array as="points" />
          </mxGeometry>
        </mxCell>
        <mxCell id="cX062KS2rVjkSc14tI30-9" value="nome" style="ellipse;whiteSpace=wrap;html=1;fontFamily=Lucida Console;fillColor=#f8cecc;strokeColor=#b85450;rounded=0;" vertex="1" parent="1">
          <mxGeometry x="440" y="150" width="96" height="40" as="geometry" />
        </mxCell>
        <mxCell id="cX062KS2rVjkSc14tI30-16" value="" style="edgeStyle=orthogonalEdgeStyle;rounded=0;orthogonalLoop=1;jettySize=auto;html=1;fontFamily=Lucida Console;" edge="1" parent="1" source="cX062KS2rVjkSc14tI30-13" target="cX062KS2rVjkSc14tI30-15">
          <mxGeometry relative="1" as="geometry" />
        </mxCell>
        <mxCell id="cX062KS2rVjkSc14tI30-13" value="possui" style="rhombus;whiteSpace=wrap;html=1;fontFamily=Lucida Console;fillColor=#fff2cc;strokeColor=#d6b656;rounded=0;" vertex="1" parent="1">
          <mxGeometry x="380" y="340" width="80" height="60" as="geometry" />
        </mxCell>
        <mxCell id="cX062KS2rVjkSc14tI30-15" value="Disciplinas" style="whiteSpace=wrap;html=1;fontFamily=Lucida Console;fillColor=#bac8d3;strokeColor=#23445d;rounded=0;" vertex="1" parent="1">
          <mxGeometry x="360" y="440" width="120" height="60" as="geometry" />
        </mxCell>
        <mxCell id="cX062KS2rVjkSc14tI30-17" value="" style="endArrow=classic;html=1;rounded=0;fontFamily=Lucida Console;exitX=0.75;exitY=1;exitDx=0;exitDy=0;" edge="1" parent="1" source="cX062KS2rVjkSc14tI30-15">
          <mxGeometry width="50" height="50" relative="1" as="geometry">
            <mxPoint x="474" y="470" as="sourcePoint" />
            <mxPoint x="480" y="560" as="targetPoint" />
          </mxGeometry>
        </mxCell>
        <mxCell id="cX062KS2rVjkSc14tI30-18" value="" style="endArrow=classic;html=1;rounded=0;fontFamily=Lucida Console;exitX=0.5;exitY=1;exitDx=0;exitDy=0;" edge="1" parent="1" source="cX062KS2rVjkSc14tI30-15">
          <mxGeometry width="50" height="50" relative="1" as="geometry">
            <mxPoint x="414" y="560" as="sourcePoint" />
            <mxPoint x="420" y="620" as="targetPoint" />
          </mxGeometry>
        </mxCell>
        <mxCell id="cX062KS2rVjkSc14tI30-19" value="" style="endArrow=classic;html=1;rounded=0;fontFamily=Lucida Console;exitX=0.25;exitY=1;exitDx=0;exitDy=0;" edge="1" parent="1" source="cX062KS2rVjkSc14tI30-15">
          <mxGeometry width="50" height="50" relative="1" as="geometry">
            <mxPoint x="340" y="585" as="sourcePoint" />
            <mxPoint x="360" y="560" as="targetPoint" />
          </mxGeometry>
        </mxCell>
        <mxCell id="cX062KS2rVjkSc14tI30-20" value="" style="endArrow=classic;html=1;rounded=0;fontFamily=Lucida Console;exitX=0;exitY=1;exitDx=0;exitDy=0;" edge="1" parent="1" source="cX062KS2rVjkSc14tI30-15">
          <mxGeometry width="50" height="50" relative="1" as="geometry">
            <mxPoint x="290" y="560" as="sourcePoint" />
            <mxPoint x="280" y="560" as="targetPoint" />
          </mxGeometry>
        </mxCell>
        <mxCell id="cX062KS2rVjkSc14tI30-21" value="" style="endArrow=classic;html=1;rounded=0;fontFamily=Lucida Console;exitX=1;exitY=1;exitDx=0;exitDy=0;" edge="1" parent="1" source="cX062KS2rVjkSc14tI30-15">
          <mxGeometry width="50" height="50" relative="1" as="geometry">
            <mxPoint x="240" y="470" as="sourcePoint" />
            <mxPoint x="560" y="560" as="targetPoint" />
          </mxGeometry>
        </mxCell>
        <mxCell id="cX062KS2rVjkSc14tI30-23" value="" style="endArrow=classic;html=1;rounded=0;fontFamily=Lucida Console;exitX=0.25;exitY=0;exitDx=0;exitDy=0;entryX=1;entryY=1;entryDx=0;entryDy=0;" edge="1" parent="1" source="cX062KS2rVjkSc14tI30-1" target="cX062KS2rVjkSc14tI30-5">
          <mxGeometry width="50" height="50" relative="1" as="geometry">
            <mxPoint x="360" y="240" as="sourcePoint" />
            <mxPoint x="410" y="190" as="targetPoint" />
          </mxGeometry>
        </mxCell>
        <mxCell id="cX062KS2rVjkSc14tI30-24" value="código" style="ellipse;whiteSpace=wrap;html=1;fontFamily=Lucida Console;fillColor=#bac8d3;strokeColor=#23445d;" vertex="1" parent="1">
          <mxGeometry x="180" y="545" width="110" height="55" as="geometry" />
        </mxCell>
        <mxCell id="cX062KS2rVjkSc14tI30-25" value="nome" style="ellipse;whiteSpace=wrap;html=1;fontFamily=Lucida Console;fillColor=#bac8d3;strokeColor=#23445d;" vertex="1" parent="1">
          <mxGeometry x="296" y="557" width="110" height="55" as="geometry" />
        </mxCell>
        <mxCell id="cX062KS2rVjkSc14tI30-26" value="ementa" style="ellipse;whiteSpace=wrap;html=1;fontFamily=Lucida Console;fillColor=#bac8d3;strokeColor=#23445d;" vertex="1" parent="1">
          <mxGeometry x="365" y="620" width="110" height="55" as="geometry" />
        </mxCell>
        <mxCell id="cX062KS2rVjkSc14tI30-27" value="disciplinas&lt;br&gt;pré-requesito" style="ellipse;whiteSpace=wrap;html=1;fontFamily=Lucida Console;fillColor=#bac8d3;strokeColor=#23445d;" vertex="1" parent="1">
          <mxGeometry x="433" y="557" width="110" height="55" as="geometry" />
        </mxCell>
        <mxCell id="cX062KS2rVjkSc14tI30-28" value="número de créditos" style="ellipse;whiteSpace=wrap;html=1;fontFamily=Lucida Console;fillColor=#f8cecc;strokeColor=#b85450;" vertex="1" parent="1">
          <mxGeometry x="550" y="545" width="110" height="55" as="geometry" />
        </mxCell>
        <mxCell id="cX062KS2rVjkSc14tI30-29" value="departamento responsável" style="ellipse;whiteSpace=wrap;html=1;align=center;dashed=1;fontFamily=Lucida Console;fillColor=#cdeb8b;strokeColor=#36393d;" vertex="1" parent="1">
          <mxGeometry x="520" y="620" width="100" height="40" as="geometry" />
        </mxCell>
        <mxCell id="cX062KS2rVjkSc14tI30-30" value="" style="endArrow=classic;html=1;rounded=0;fontFamily=Lucida Console;entryX=0;entryY=0;entryDx=0;entryDy=0;" edge="1" parent="1" target="cX062KS2rVjkSc14tI30-29">
          <mxGeometry width="50" height="50" relative="1" as="geometry">
            <mxPoint x="520" y="607" as="sourcePoint" />
            <mxPoint x="570" y="557" as="targetPoint" />
          </mxGeometry>
        </mxCell>
        <mxCell id="cX062KS2rVjkSc14tI30-31" value="Orientador" style="rounded=0;whiteSpace=wrap;html=1;fontFamily=Lucida Console;fillColor=#bac8d3;strokeColor=#23445d;" vertex="1" parent="1">
          <mxGeometry x="983" y="215" width="120" height="60" as="geometry" />
        </mxCell>
        <mxCell id="cX062KS2rVjkSc14tI30-36" value="número" style="ellipse;whiteSpace=wrap;html=1;align=center;fontStyle=4;fontFamily=Lucida Console;fillColor=#f8cecc;strokeColor=#b85450;" vertex="1" parent="1">
          <mxGeometry x="1103" y="160" width="110" height="55" as="geometry" />
        </mxCell>
        <mxCell id="cX062KS2rVjkSc14tI30-37" value="nome" style="ellipse;whiteSpace=wrap;html=1;fontFamily=Lucida Console;fillColor=#f8cecc;strokeColor=#b85450;" vertex="1" parent="1">
          <mxGeometry x="1103" y="275" width="110" height="55" as="geometry" />
        </mxCell>
        <mxCell id="cX062KS2rVjkSc14tI30-38" value="" style="endArrow=classic;html=1;rounded=0;fontFamily=Lucida Console;startArrow=none;" edge="1" parent="1" source="cX062KS2rVjkSc14tI30-52">
          <mxGeometry width="50" height="50" relative="1" as="geometry">
            <mxPoint x="640" y="270" as="sourcePoint" />
            <mxPoint x="480" y="270" as="targetPoint" />
          </mxGeometry>
        </mxCell>
        <mxCell id="cX062KS2rVjkSc14tI30-39" value="" style="endArrow=classic;html=1;rounded=0;fontFamily=Lucida Console;entryX=0;entryY=0;entryDx=0;entryDy=0;exitX=1;exitY=1;exitDx=0;exitDy=0;" edge="1" parent="1" source="cX062KS2rVjkSc14tI30-31" target="cX062KS2rVjkSc14tI30-37">
          <mxGeometry width="50" height="50" relative="1" as="geometry">
            <mxPoint x="983" y="215" as="sourcePoint" />
            <mxPoint x="1033" y="165" as="targetPoint" />
          </mxGeometry>
        </mxCell>
        <mxCell id="cX062KS2rVjkSc14tI30-40" value="" style="endArrow=classic;html=1;rounded=0;fontFamily=Lucida Console;entryX=1;entryY=0.5;entryDx=0;entryDy=0;exitX=0.5;exitY=1;exitDx=0;exitDy=0;" edge="1" parent="1" source="cX062KS2rVjkSc14tI30-31" target="cX062KS2rVjkSc14tI30-15">
          <mxGeometry width="50" height="50" relative="1" as="geometry">
            <mxPoint x="700" y="300" as="sourcePoint" />
            <mxPoint x="722.2284191704482" y="315.414804223563" as="targetPoint" />
            <Array as="points">
              <mxPoint x="770" y="380" />
            </Array>
          </mxGeometry>
        </mxCell>
        <mxCell id="cX062KS2rVjkSc14tI30-41" value="" style="endArrow=classic;html=1;rounded=0;fontFamily=Lucida Console;entryX=0;entryY=1;entryDx=0;entryDy=0;" edge="1" parent="1" target="cX062KS2rVjkSc14tI30-36">
          <mxGeometry width="50" height="50" relative="1" as="geometry">
            <mxPoint x="1103" y="215" as="sourcePoint" />
            <mxPoint x="1123" y="195" as="targetPoint" />
          </mxGeometry>
        </mxCell>
        <mxCell id="cX062KS2rVjkSc14tI30-42" value="código" style="ellipse;whiteSpace=wrap;html=1;fontFamily=Lucida Console;fillColor=#bac8d3;strokeColor=#23445d;" vertex="1" parent="1">
          <mxGeometry x="180" y="545" width="110" height="55" as="geometry" />
        </mxCell>
        <mxCell id="cX062KS2rVjkSc14tI30-43" value="nome" style="ellipse;whiteSpace=wrap;html=1;fontFamily=Lucida Console;fillColor=#bac8d3;strokeColor=#23445d;" vertex="1" parent="1">
          <mxGeometry x="296" y="557" width="110" height="55" as="geometry" />
        </mxCell>
        <mxCell id="cX062KS2rVjkSc14tI30-44" value="código" style="ellipse;whiteSpace=wrap;html=1;fontFamily=Lucida Console;fillColor=#bac8d3;strokeColor=#23445d;" vertex="1" parent="1">
          <mxGeometry x="180" y="545" width="110" height="55" as="geometry" />
        </mxCell>
        <mxCell id="cX062KS2rVjkSc14tI30-45" value="nome" style="ellipse;whiteSpace=wrap;html=1;fontFamily=Lucida Console;fillColor=#bac8d3;strokeColor=#23445d;" vertex="1" parent="1">
          <mxGeometry x="296" y="557" width="110" height="55" as="geometry" />
        </mxCell>
        <mxCell id="cX062KS2rVjkSc14tI30-46" value="disciplinas&lt;br&gt;pré-requesito" style="ellipse;whiteSpace=wrap;html=1;fontFamily=Lucida Console;fillColor=#bac8d3;strokeColor=#23445d;" vertex="1" parent="1">
          <mxGeometry x="433" y="557" width="110" height="55" as="geometry" />
        </mxCell>
        <mxCell id="cX062KS2rVjkSc14tI30-47" value="código" style="ellipse;whiteSpace=wrap;html=1;align=center;fontStyle=4;fontFamily=Lucida Console;fillColor=#f8cecc;strokeColor=#b85450;" vertex="1" parent="1">
          <mxGeometry x="180" y="545" width="110" height="55" as="geometry" />
        </mxCell>
        <mxCell id="cX062KS2rVjkSc14tI30-48" value="nome" style="ellipse;whiteSpace=wrap;html=1;fontFamily=Lucida Console;fillColor=#fad9d5;strokeColor=#ae4132;" vertex="1" parent="1">
          <mxGeometry x="296" y="557" width="110" height="55" as="geometry" />
        </mxCell>
        <mxCell id="cX062KS2rVjkSc14tI30-49" value="disciplinas&lt;br&gt;pré-requesito" style="ellipse;whiteSpace=wrap;html=1;fontFamily=Lucida Console;fillColor=#fad9d5;strokeColor=#ae4132;" vertex="1" parent="1">
          <mxGeometry x="433" y="557" width="110" height="55" as="geometry" />
        </mxCell>
        <mxCell id="cX062KS2rVjkSc14tI30-50" value="ementa" style="ellipse;whiteSpace=wrap;html=1;fontFamily=Lucida Console;fillColor=#fad9d5;strokeColor=#ae4132;" vertex="1" parent="1">
          <mxGeometry x="365" y="620" width="110" height="55" as="geometry" />
        </mxCell>
        <mxCell id="cX062KS2rVjkSc14tI30-126" style="edgeStyle=orthogonalEdgeStyle;rounded=0;orthogonalLoop=1;jettySize=auto;html=1;exitX=0;exitY=0;exitDx=0;exitDy=0;fontFamily=Helvetica;fontSize=12;fontColor=default;" edge="1" parent="1" source="cX062KS2rVjkSc14tI30-51">
          <mxGeometry relative="1" as="geometry">
            <mxPoint x="1059.8823529411766" y="280" as="targetPoint" />
            <Array as="points">
              <mxPoint x="1060" y="390" />
              <mxPoint x="1060" y="390" />
            </Array>
          </mxGeometry>
        </mxCell>
        <mxCell id="cX062KS2rVjkSc14tI30-51" value="Aluno" style="rounded=0;whiteSpace=wrap;html=1;fontFamily=Lucida Console;fillColor=#bac8d3;strokeColor=#23445d;" vertex="1" parent="1">
          <mxGeometry x="1060" y="492.5" width="120" height="60" as="geometry" />
        </mxCell>
        <mxCell id="cX062KS2rVjkSc14tI30-52" value="possui" style="rhombus;whiteSpace=wrap;html=1;fontFamily=Lucida Console;fillColor=#fff2cc;strokeColor=#d6b656;" vertex="1" parent="1">
          <mxGeometry x="700" y="230" width="70" height="60" as="geometry" />
        </mxCell>
        <mxCell id="cX062KS2rVjkSc14tI30-53" value="" style="endArrow=none;html=1;rounded=0;fontFamily=Lucida Console;entryX=1;entryY=0.5;entryDx=0;entryDy=0;" edge="1" parent="1" target="cX062KS2rVjkSc14tI30-52">
          <mxGeometry width="50" height="50" relative="1" as="geometry">
            <mxPoint x="983" y="245" as="sourcePoint" />
            <mxPoint x="943" y="245" as="targetPoint" />
          </mxGeometry>
        </mxCell>
        <mxCell id="cX062KS2rVjkSc14tI30-54" value="possui" style="rhombus;whiteSpace=wrap;html=1;fontFamily=Lucida Console;fillColor=#fff2cc;strokeColor=#d6b656;" vertex="1" parent="1">
          <mxGeometry x="730" y="340" width="80" height="60" as="geometry" />
        </mxCell>
        <mxCell id="cX062KS2rVjkSc14tI30-55" value="" style="endArrow=classic;html=1;rounded=0;fontFamily=Lucida Console;entryX=0;entryY=0.5;entryDx=0;entryDy=0;exitX=1;exitY=0.5;exitDx=0;exitDy=0;startArrow=none;" edge="1" parent="1" source="cX062KS2rVjkSc14tI30-92" target="cX062KS2rVjkSc14tI30-15">
          <mxGeometry width="50" height="50" relative="1" as="geometry">
            <mxPoint x="220" y="400" as="sourcePoint" />
            <mxPoint x="270" y="350" as="targetPoint" />
          </mxGeometry>
        </mxCell>
        <mxCell id="cX062KS2rVjkSc14tI30-56" value="" style="ellipse;whiteSpace=wrap;html=1;fontFamily=Lucida Console;" vertex="1" parent="1">
          <mxGeometry x="1100" y="370" width="120" height="80" as="geometry" />
        </mxCell>
        <mxCell id="cX062KS2rVjkSc14tI30-57" value="" style="ellipse;whiteSpace=wrap;html=1;fontFamily=Lucida Console;" vertex="1" parent="1">
          <mxGeometry x="1210" y="412.5" width="120" height="80" as="geometry" />
        </mxCell>
        <mxCell id="cX062KS2rVjkSc14tI30-59" value="endereço" style="ellipse;whiteSpace=wrap;html=1;fontFamily=Lucida Console;fillColor=#fad9d5;strokeColor=#ae4132;" vertex="1" parent="1">
          <mxGeometry x="1230" y="530" width="120" height="80" as="geometry" />
        </mxCell>
        <mxCell id="cX062KS2rVjkSc14tI30-60" value="" style="endArrow=classic;html=1;rounded=0;fontFamily=Lucida Console;exitX=1;exitY=1;exitDx=0;exitDy=0;entryX=0;entryY=0.5;entryDx=0;entryDy=0;" edge="1" parent="1" source="cX062KS2rVjkSc14tI30-51" target="cX062KS2rVjkSc14tI30-99">
          <mxGeometry width="50" height="50" relative="1" as="geometry">
            <mxPoint x="1560" y="582.5" as="sourcePoint" />
            <mxPoint x="1230" y="572.5" as="targetPoint" />
          </mxGeometry>
        </mxCell>
        <mxCell id="cX062KS2rVjkSc14tI30-61" value="" style="endArrow=classic;html=1;rounded=0;fontFamily=Lucida Console;entryX=0;entryY=1;entryDx=0;entryDy=0;exitX=1;exitY=0;exitDx=0;exitDy=0;" edge="1" parent="1" source="cX062KS2rVjkSc14tI30-51" target="cX062KS2rVjkSc14tI30-67">
          <mxGeometry width="50" height="50" relative="1" as="geometry">
            <mxPoint x="1340" y="482.5" as="sourcePoint" />
            <mxPoint x="1390" y="432.5" as="targetPoint" />
            <Array as="points" />
          </mxGeometry>
        </mxCell>
        <mxCell id="cX062KS2rVjkSc14tI30-62" value="" style="endArrow=classic;html=1;rounded=0;fontFamily=Lucida Console;entryX=0.5;entryY=1;entryDx=0;entryDy=0;" edge="1" parent="1" target="cX062KS2rVjkSc14tI30-56">
          <mxGeometry width="50" height="50" relative="1" as="geometry">
            <mxPoint x="1120" y="492.5" as="sourcePoint" />
            <mxPoint x="1170" y="442.5" as="targetPoint" />
          </mxGeometry>
        </mxCell>
        <mxCell id="cX062KS2rVjkSc14tI30-63" value="" style="endArrow=classic;html=1;rounded=0;fontFamily=Lucida Console;entryX=0.241;entryY=0.087;entryDx=0;entryDy=0;entryPerimeter=0;" edge="1" parent="1" target="cX062KS2rVjkSc14tI30-101">
          <mxGeometry width="50" height="50" relative="1" as="geometry">
            <mxPoint x="1120" y="552.5" as="sourcePoint" />
            <mxPoint x="1130" y="572.5" as="targetPoint" />
          </mxGeometry>
        </mxCell>
        <mxCell id="cX062KS2rVjkSc14tI30-64" value="" style="ellipse;whiteSpace=wrap;html=1;fontFamily=Lucida Console;" vertex="1" parent="1">
          <mxGeometry x="1100" y="370" width="120" height="80" as="geometry" />
        </mxCell>
        <mxCell id="cX062KS2rVjkSc14tI30-65" value="" style="ellipse;whiteSpace=wrap;html=1;fontFamily=Lucida Console;" vertex="1" parent="1">
          <mxGeometry x="1210" y="412.5" width="120" height="80" as="geometry" />
        </mxCell>
        <mxCell id="cX062KS2rVjkSc14tI30-66" value="nome" style="ellipse;whiteSpace=wrap;html=1;fontFamily=Lucida Console;fillColor=#fad9d5;strokeColor=#ae4132;" vertex="1" parent="1">
          <mxGeometry x="1100" y="370" width="120" height="80" as="geometry" />
        </mxCell>
        <mxCell id="cX062KS2rVjkSc14tI30-67" value="código" style="ellipse;whiteSpace=wrap;html=1;align=center;fontStyle=4;fontFamily=Lucida Console;fillColor=#f8cecc;strokeColor=#b85450;" vertex="1" parent="1">
          <mxGeometry x="1210" y="412.5" width="120" height="80" as="geometry" />
        </mxCell>
        <mxCell id="cX062KS2rVjkSc14tI30-68" value="telefones" style="ellipse;shape=doubleEllipse;whiteSpace=wrap;html=1;fontFamily=Lucida Console;fillColor=#fad9d5;strokeColor=#ae4132;" vertex="1" parent="1">
          <mxGeometry x="1130" y="595" width="120" height="80" as="geometry" />
        </mxCell>
        <mxCell id="cX062KS2rVjkSc14tI30-69" value="" style="ellipse;whiteSpace=wrap;html=1;fontFamily=Lucida Console;" vertex="1" parent="1">
          <mxGeometry x="1350" y="658" width="73" height="50" as="geometry" />
        </mxCell>
        <mxCell id="cX062KS2rVjkSc14tI30-73" value="" style="ellipse;whiteSpace=wrap;html=1;fontFamily=Lucida Console;" vertex="1" parent="1">
          <mxGeometry x="1340" y="475" width="73" height="50" as="geometry" />
        </mxCell>
        <mxCell id="cX062KS2rVjkSc14tI30-74" value="" style="ellipse;whiteSpace=wrap;html=1;fontFamily=Lucida Console;" vertex="1" parent="1">
          <mxGeometry x="1271" y="688" width="73" height="50" as="geometry" />
        </mxCell>
        <mxCell id="cX062KS2rVjkSc14tI30-123" style="edgeStyle=orthogonalEdgeStyle;rounded=0;orthogonalLoop=1;jettySize=auto;html=1;exitX=0;exitY=0.5;exitDx=0;exitDy=0;entryX=0.94;entryY=0.282;entryDx=0;entryDy=0;entryPerimeter=0;fontFamily=Helvetica;fontSize=12;fontColor=default;" edge="1" parent="1" source="cX062KS2rVjkSc14tI30-75" target="cX062KS2rVjkSc14tI30-99">
          <mxGeometry relative="1" as="geometry" />
        </mxCell>
        <mxCell id="cX062KS2rVjkSc14tI30-75" value="rua" style="ellipse;whiteSpace=wrap;html=1;fontFamily=Lucida Console;fillColor=#ffcc99;strokeColor=#36393d;" vertex="1" parent="1">
          <mxGeometry x="1400" y="525" width="73" height="50" as="geometry" />
        </mxCell>
        <mxCell id="cX062KS2rVjkSc14tI30-122" style="edgeStyle=orthogonalEdgeStyle;rounded=0;orthogonalLoop=1;jettySize=auto;html=1;exitX=0;exitY=0.5;exitDx=0;exitDy=0;entryX=0.979;entryY=0.665;entryDx=0;entryDy=0;entryPerimeter=0;fontFamily=Helvetica;fontSize=12;fontColor=default;" edge="1" parent="1" source="cX062KS2rVjkSc14tI30-76" target="cX062KS2rVjkSc14tI30-99">
          <mxGeometry relative="1" as="geometry" />
        </mxCell>
        <mxCell id="cX062KS2rVjkSc14tI30-76" value="número" style="ellipse;whiteSpace=wrap;html=1;fontFamily=Lucida Console;fillColor=#ffcc99;strokeColor=#36393d;" vertex="1" parent="1">
          <mxGeometry x="1400" y="593" width="73" height="50" as="geometry" />
        </mxCell>
        <mxCell id="cX062KS2rVjkSc14tI30-85" value="" style="ellipse;whiteSpace=wrap;html=1;fontFamily=Lucida Console;" vertex="1" parent="1">
          <mxGeometry x="1350" y="658" width="73" height="50" as="geometry" />
        </mxCell>
        <mxCell id="cX062KS2rVjkSc14tI30-86" value="" style="ellipse;whiteSpace=wrap;html=1;fontFamily=Lucida Console;" vertex="1" parent="1">
          <mxGeometry x="1271" y="688" width="73" height="50" as="geometry" />
        </mxCell>
        <mxCell id="cX062KS2rVjkSc14tI30-87" value="" style="ellipse;whiteSpace=wrap;html=1;fontFamily=Lucida Console;" vertex="1" parent="1">
          <mxGeometry x="1350" y="658" width="73" height="50" as="geometry" />
        </mxCell>
        <mxCell id="cX062KS2rVjkSc14tI30-88" value="" style="ellipse;whiteSpace=wrap;html=1;fontFamily=Lucida Console;" vertex="1" parent="1">
          <mxGeometry x="1271" y="688" width="73" height="50" as="geometry" />
        </mxCell>
        <mxCell id="cX062KS2rVjkSc14tI30-118" style="edgeStyle=orthogonalEdgeStyle;rounded=0;orthogonalLoop=1;jettySize=auto;html=1;exitX=0;exitY=0;exitDx=0;exitDy=0;entryX=1;entryY=1;entryDx=0;entryDy=0;fontFamily=Helvetica;fontSize=12;fontColor=default;" edge="1" parent="1" source="cX062KS2rVjkSc14tI30-89" target="cX062KS2rVjkSc14tI30-99">
          <mxGeometry relative="1" as="geometry" />
        </mxCell>
        <mxCell id="cX062KS2rVjkSc14tI30-89" value="cidade" style="ellipse;whiteSpace=wrap;html=1;fontFamily=Lucida Console;fillColor=#ffcc99;strokeColor=#36393d;" vertex="1" parent="1">
          <mxGeometry x="1350" y="658" width="73" height="50" as="geometry" />
        </mxCell>
        <mxCell id="cX062KS2rVjkSc14tI30-117" style="edgeStyle=orthogonalEdgeStyle;rounded=0;orthogonalLoop=1;jettySize=auto;html=1;exitX=0.5;exitY=0;exitDx=0;exitDy=0;entryX=0.5;entryY=1;entryDx=0;entryDy=0;fontFamily=Helvetica;fontSize=12;fontColor=default;" edge="1" parent="1" source="cX062KS2rVjkSc14tI30-90" target="cX062KS2rVjkSc14tI30-99">
          <mxGeometry relative="1" as="geometry" />
        </mxCell>
        <mxCell id="cX062KS2rVjkSc14tI30-90" value="bairro" style="ellipse;whiteSpace=wrap;html=1;fontFamily=Lucida Console;fillColor=#ffcc99;strokeColor=#36393d;" vertex="1" parent="1">
          <mxGeometry x="1271" y="688" width="73" height="50" as="geometry" />
        </mxCell>
        <mxCell id="cX062KS2rVjkSc14tI30-125" style="edgeStyle=orthogonalEdgeStyle;rounded=0;orthogonalLoop=1;jettySize=auto;html=1;exitX=0;exitY=1;exitDx=0;exitDy=0;entryX=0.783;entryY=0.076;entryDx=0;entryDy=0;entryPerimeter=0;fontFamily=Helvetica;fontSize=12;fontColor=default;" edge="1" parent="1" source="cX062KS2rVjkSc14tI30-91" target="cX062KS2rVjkSc14tI30-99">
          <mxGeometry relative="1" as="geometry" />
        </mxCell>
        <mxCell id="cX062KS2rVjkSc14tI30-91" value="CEP" style="ellipse;whiteSpace=wrap;html=1;fontFamily=Lucida Console;fillColor=#ffcc99;strokeColor=#36393d;" vertex="1" parent="1">
          <mxGeometry x="1340" y="475" width="73" height="50" as="geometry" />
        </mxCell>
        <mxCell id="cX062KS2rVjkSc14tI30-92" value="possui" style="rhombus;whiteSpace=wrap;html=1;fontFamily=Lucida Console;fillColor=#fff2cc;strokeColor=#d6b656;" vertex="1" parent="1">
          <mxGeometry x="750" y="475" width="80" height="70" as="geometry" />
        </mxCell>
        <mxCell id="cX062KS2rVjkSc14tI30-93" value="" style="endArrow=none;html=1;rounded=0;fontFamily=Lucida Console;entryX=1;entryY=0.5;entryDx=0;entryDy=0;exitX=0;exitY=0.5;exitDx=0;exitDy=0;" edge="1" parent="1" source="cX062KS2rVjkSc14tI30-51" target="cX062KS2rVjkSc14tI30-92">
          <mxGeometry width="50" height="50" relative="1" as="geometry">
            <mxPoint x="890" y="560" as="sourcePoint" />
            <mxPoint x="360" y="470" as="targetPoint" />
          </mxGeometry>
        </mxCell>
        <mxCell id="cX062KS2rVjkSc14tI30-98" value="número" style="ellipse;whiteSpace=wrap;html=1;align=center;fontStyle=4;fontFamily=Lucida Console;fillColor=#f8cecc;strokeColor=#b85450;" vertex="1" parent="1">
          <mxGeometry x="1103" y="160" width="110" height="55" as="geometry" />
        </mxCell>
        <mxCell id="cX062KS2rVjkSc14tI30-99" value="endereço" style="ellipse;whiteSpace=wrap;html=1;fontFamily=Lucida Console;fillColor=#f8cecc;strokeColor=#b85450;" vertex="1" parent="1">
          <mxGeometry x="1230" y="530" width="120" height="80" as="geometry" />
        </mxCell>
        <mxCell id="cX062KS2rVjkSc14tI30-101" value="telefones" style="ellipse;shape=doubleEllipse;whiteSpace=wrap;html=1;fontFamily=Lucida Console;fillColor=#f8cecc;strokeColor=#b85450;" vertex="1" parent="1">
          <mxGeometry x="1130" y="595" width="120" height="80" as="geometry" />
        </mxCell>
        <mxCell id="cX062KS2rVjkSc14tI30-102" value="código" style="ellipse;whiteSpace=wrap;html=1;align=center;fontStyle=4;fontFamily=Lucida Console;fillColor=#f8cecc;strokeColor=#b85450;" vertex="1" parent="1">
          <mxGeometry x="180" y="545" width="110" height="55" as="geometry" />
        </mxCell>
        <mxCell id="cX062KS2rVjkSc14tI30-103" value="nome" style="ellipse;whiteSpace=wrap;html=1;fontFamily=Lucida Console;fillColor=#f8cecc;strokeColor=#b85450;" vertex="1" parent="1">
          <mxGeometry x="296" y="557" width="110" height="55" as="geometry" />
        </mxCell>
        <mxCell id="cX062KS2rVjkSc14tI30-104" value="ementa" style="ellipse;whiteSpace=wrap;html=1;fontFamily=Lucida Console;fillColor=#f8cecc;strokeColor=#b85450;" vertex="1" parent="1">
          <mxGeometry x="365" y="620" width="110" height="55" as="geometry" />
        </mxCell>
        <mxCell id="cX062KS2rVjkSc14tI30-105" value="disciplinas&lt;br&gt;pré-requesito" style="ellipse;whiteSpace=wrap;html=1;fontFamily=Lucida Console;fillColor=#f8cecc;strokeColor=#b85450;" vertex="1" parent="1">
          <mxGeometry x="433" y="557" width="110" height="55" as="geometry" />
        </mxCell>
        <mxCell id="cX062KS2rVjkSc14tI30-132" value="possui" style="rhombus;whiteSpace=wrap;html=1;pointerEvents=0;fontFamily=Helvetica;fontSize=12;fillColor=#fff2cc;strokeColor=#d6b656;" vertex="1" parent="1">
          <mxGeometry x="1020" y="360" width="80" height="70" as="geometry" />
        </mxCell>
      </root>
    </mxGraphModel>
  </diagram>
</mxfile>
